<?xml version="1.0" encoding="utf-8" ?>
<svg xmlns="http://www.w3.org/2000/svg" xmlns:xlink="http://www.w3.org/1999/xlink" width="1024" height="1024">
	<path fill="transparent" d="M0 0L1024 0L1024 1024L0 1024L0 0Z"/>
	<path fill="black" d="M112.852 522.038C115.867 523.278 117.603 527.614 118.787 530.508C120.041 533.576 121.115 536.667 121.834 539.904C120.23 542.171 118.654 544.552 116.694 546.529L114.945 545.291C116.621 543.747 118.019 542.443 118.37 540.083C119.162 534.76 115.243 527.619 112.019 523.55L112.852 522.038Z"/>
	<path fill="#312C39" d="M104.586 543.925C100.935 540.513 96.7915 536.991 96.5622 531.595C96.4315 528.52 97.686 525.583 99.759 523.343C102.875 519.976 107.937 517.749 112.507 517.666L113.016 518.236C112.69 519.225 112.405 520.218 112.129 521.223L112.852 522.038L112.019 523.55C115.243 527.619 119.162 534.76 118.37 540.083C118.019 542.443 116.621 543.747 114.945 545.291L116.694 546.529L116.819 547.358C118.857 548.562 121.325 548.924 123.611 549.461C133.126 546.304 143.968 545.016 153.875 543.517C156.998 543.317 160.514 543.258 163.475 542.221C165.111 541.648 168.778 539.365 170.378 539.438C171.565 539.492 173.594 540.593 174.452 541.403C175.153 542.064 175.004 542.266 175.125 543.171C173.064 548.026 159.8 553.528 154.902 556.302C154.737 556.398 154.577 556.503 154.408 556.59C146.096 560.865 134.568 566.165 125.068 564.743C121.501 564.209 117.853 562.783 114.417 561.679C114.354 573.441 115.332 589.261 117.651 600.743C119.315 608.979 116.893 603.339 114.806 606.458C117.947 614.29 123.836 621.942 127.404 630.511C124.372 642.721 119.955 654.842 115.617 666.642C117.166 667.27 118.805 667.586 120.395 668.09C121.775 668.527 122.672 668.977 123.322 670.276L122.587 671.16C120.698 671.925 118.914 672.194 116.869 672.049C114.596 671.887 112.753 671.376 111.267 669.571C110.796 667.492 116.139 638.018 116.778 633.014C110.208 626.564 104.236 619.267 98.0899 612.401C96.5121 621.097 95.4227 630.247 92.8549 638.697C81.9934 646.928 70.6057 654.887 60.0771 663.491C60.1601 663.642 60.2386 663.796 60.326 663.944C60.4713 664.191 60.6272 664.432 60.7752 664.677C62.5873 667.682 65.6297 669.026 67.4592 671.862C67.2623 672.583 67.4337 672.674 66.8511 672.949C64.9314 673.857 61.7882 672.745 59.8853 672.221C57.419 669.092 56.0379 665.707 54.6948 662.006C63.6412 655.552 73.6022 643.866 82.1848 636.128C82.0849 626.134 82.7202 615.438 81.7639 605.512L80.2283 604.509C80.2063 604.349 80.1736 604.19 80.1623 604.029C79.9264 600.647 81.073 596.541 81.7704 593.215C85.606 574.926 93.0645 558.63 104.586 543.925Z"/>
	<path fill="transparent" d="M112.019 523.55C115.243 527.619 119.162 534.76 118.37 540.083C118.019 542.443 116.621 543.747 114.945 545.291C113.763 545.458 112.532 545.663 111.342 545.469C109.784 545.214 105.905 542.406 105.096 541.026C104.44 539.905 104.605 539.324 104.871 538.167L107.155 538.427C109.356 536.17 105.767 530.541 107.216 527.37C108.163 525.297 110.056 524.43 112.019 523.55Z"/>
	<path fill="black" d="M707.611 374.473L738.652 374.526C735.541 400.614 730.908 426.604 726.853 452.564L707.36 578.243C706.22 585.58 700.053 631.693 698.724 634.12L697.79 634.207C687.146 633.836 676.472 633.957 665.822 633.931C667.069 624.959 668.797 616.05 670.156 607.093L696.754 442.774L703.688 400.143C705.086 391.648 706.828 383.045 707.611 374.473Z"/>
	<path fill="black" d="M747.751 597.296Q749.014 598.162 750.296 598.999C759.15 604.754 770.8 607.877 781.279 605.545C786.76 604.325 791.727 601.525 794.662 596.612C804.207 580.638 772.84 568.362 763.87 559.886Q762.921 559.002 762.037 558.054Q761.152 557.106 760.337 556.098Q759.521 555.09 758.779 554.027Q758.036 552.964 757.371 551.851Q756.705 550.739 756.119 549.582Q755.533 548.425 755.03 547.23Q754.527 546.035 754.11 544.807Q753.692 543.58 753.362 542.326C750.276 530.548 751.557 515.996 757.838 505.447C764.767 493.809 776.473 487.305 789.364 484.1C803.826 480.504 817.667 482.796 830.339 490.451C833.201 494.411 836.418 500.401 837.762 505.116L825.941 528.479C816.254 523.695 808.146 515.443 798.055 511.752C795.196 512.586 792.436 513.515 790.405 515.81C788.06 518.462 786.094 522.952 786.351 526.539C787.13 537.428 809.729 548.323 817.732 555.532C826.219 563.179 832.121 572.328 832.651 583.977Q832.707 585.129 832.706 586.283Q832.705 587.436 832.647 588.588Q832.59 589.74 832.475 590.888Q832.361 592.036 832.19 593.177Q832.019 594.317 831.792 595.448Q831.565 596.579 831.283 597.698Q831 598.816 830.663 599.919Q830.326 601.022 829.935 602.107Q829.544 603.193 829.1 604.257Q828.656 605.322 828.16 606.363Q827.664 607.405 827.118 608.421Q826.571 609.436 825.975 610.424Q825.379 611.411 824.735 612.368Q824.091 613.325 823.4 614.249Q822.71 615.174 821.975 616.062Q821.24 616.951 820.462 617.803C809.699 629.353 793.61 635.901 777.973 636.454C758.017 637.159 741.02 632.125 726.403 618.454C733.576 611.463 740.443 604.141 747.751 597.296Z"/>
	<path fill="black" d="M431.335 482.718C446.059 482.049 460.141 486.361 471.266 496.135C483.716 507.074 490.86 523.697 491.856 540.078C493.405 565.557 482.724 591.451 465.876 610.344C450.506 627.579 431.571 636.032 408.74 637.346C392.811 636.508 379.304 633.195 367.084 622.359C354.481 611.184 348.298 595.743 347.439 579.133Q347.386 578.02 347.361 576.906Q347.336 575.792 347.338 574.677Q347.34 573.563 347.369 572.449Q347.399 571.335 347.455 570.222Q347.512 569.109 347.596 567.998Q347.68 566.887 347.791 565.778Q347.902 564.669 348.041 563.563Q348.179 562.458 348.344 561.355Q348.51 560.253 348.702 559.156Q348.894 558.058 349.113 556.966Q349.333 555.873 349.578 554.786Q349.824 553.699 350.097 552.619Q350.369 551.538 350.668 550.464Q350.967 549.391 351.292 548.325Q351.617 547.259 351.968 546.202Q352.319 545.144 352.696 544.095Q353.073 543.047 353.476 542.007Q353.878 540.968 354.306 539.939Q354.734 538.91 355.187 537.892Q355.64 536.874 356.118 535.867Q356.596 534.861 357.098 533.866Q357.6 532.871 358.127 531.889Q358.653 530.907 359.204 529.938Q359.754 528.969 360.328 528.014Q360.903 527.059 361.5 526.118Q362.097 525.177 362.717 524.251Q363.338 523.325 363.98 522.415Q364.623 521.505 365.288 520.61Q365.953 519.716 366.639 518.838Q367.326 517.961 368.034 517.1Q368.741 516.239 369.47 515.396Q370.199 514.553 370.948 513.728C387.124 496.049 407.021 483.744 431.335 482.718Z"/>
	<path fill="black" d="M426.741 513.666C432.489 513.303 438.476 514.453 443.365 517.578C450.218 521.957 454.141 529.148 455.856 536.91C459.417 553.025 453.628 570.391 444.874 583.896C437.165 595.788 428.213 603.061 414.268 606.004C407.04 606.236 400.347 605.28 394.364 600.861C387.761 595.984 383.997 587.52 382.866 579.553C380.521 563.041 387.328 544.776 397.287 531.787C404.681 522.143 414.514 515.237 426.741 513.666Z"/>
	<path fill="black" d="M153.875 543.517C156.349 507.257 169.905 472.504 197.875 448.269C220.46 428.7 248.447 418.751 278.405 420.926C301.109 422.574 324.076 432.141 339.776 448.913C331.492 457.258 323.676 466.401 315.188 474.473C296.675 459.263 284.866 452.285 259.925 454.771Q258.121 454.965 256.328 455.248Q254.536 455.53 252.759 455.899Q250.983 456.269 249.226 456.725Q247.47 457.18 245.738 457.721Q244.005 458.263 242.302 458.887Q240.598 459.512 238.927 460.22Q237.256 460.927 235.622 461.715Q233.987 462.504 232.393 463.371Q230.799 464.238 229.249 465.182Q227.699 466.125 226.197 467.144Q224.695 468.162 223.245 469.253Q221.795 470.343 220.399 471.503Q219.004 472.663 217.667 473.89Q216.33 475.117 215.054 476.408Q213.779 477.698 212.568 479.05Q211.357 480.401 210.213 481.81C194.609 500.95 186.853 527.461 189.505 551.992C191.197 567.639 197.856 583.171 210.416 593.085C224.332 604.07 240.2 605.972 257.438 603.867C268.602 602.505 279.472 598.556 289.29 593.107C290.74 579.86 295.301 566.983 296.819 553.776C282.399 554.505 267.962 556.355 253.535 557.343C256.879 545.657 259.524 533.803 262.319 521.977Q300.074 520.516 337.801 518.468C334.559 537.222 330.51 555.803 327.263 574.552C325.125 586.901 323.16 605.767 319.526 617.061C284.162 631.724 242.149 645.729 204.524 630.329Q203.62 629.953 202.725 629.554Q201.83 629.155 200.945 628.735Q200.061 628.314 199.186 627.872Q198.312 627.429 197.45 626.966Q196.587 626.502 195.736 626.017Q194.885 625.531 194.046 625.026Q193.207 624.52 192.381 623.993Q191.555 623.466 190.742 622.92Q189.929 622.373 189.131 621.806Q188.332 621.239 187.547 620.653Q186.762 620.066 185.992 619.461Q185.222 618.855 184.467 618.231Q183.713 617.606 182.974 616.963Q182.235 616.32 181.512 615.659Q180.789 614.998 180.082 614.32Q179.376 613.641 178.687 612.945Q177.997 612.249 177.325 611.536Q176.653 610.823 175.999 610.094Q175.345 609.365 174.709 608.62Q174.074 607.874 173.456 607.114Q172.839 606.353 172.241 605.577Q171.643 604.801 171.064 604.011Q170.485 603.221 169.926 602.417Q169.367 601.612 168.828 600.794Q168.289 599.976 167.77 599.145Q167.252 598.314 166.754 597.47Q166.256 596.627 165.779 595.771Q165.302 594.916 164.846 594.048Q164.391 593.181 163.957 592.303Q163.523 591.425 163.111 590.536Q162.699 589.647 162.309 588.749Q161.919 587.85 161.551 586.942C158.759 580.15 157.146 573.087 156.154 565.828C155.726 562.697 155.607 559.375 154.902 556.302C159.8 553.528 173.064 548.026 175.125 543.171C175.004 542.266 175.153 542.064 174.452 541.403C173.594 540.593 171.565 539.492 170.378 539.438C168.778 539.365 165.111 541.648 163.475 542.221C160.514 543.258 156.998 543.317 153.875 543.517Z"/>
	<path fill="black" d="M576.294 482.677C581.438 482.246 586.624 482.267 591.737 483.019C602.139 484.55 615.703 489.314 622.189 498.084C622.554 494.777 622.581 490.173 624.471 487.355C631.729 485.859 650.403 486.658 658.733 486.579C657.478 500.909 653.824 517.64 651.552 532.167L635.217 634.335C624.279 633.906 613.303 634.558 602.352 634.053C602.866 624.87 605.668 611.482 607.396 602.189L603.651 607.47C601.739 610.457 599.793 613.418 597.662 616.255C588.852 627.983 577.294 636.426 562.499 638.415C549.953 640.101 538.153 635.576 528.263 627.984C514.931 617.748 507.223 601.47 505.149 585.032C501.884 559.149 511.031 533.166 526.902 512.794C539.633 496.452 555.462 485.238 576.294 482.677Z"/>
	<path fill="transparent" d="M583.505 510.683C595.09 510.053 608.197 514.279 617.865 520.521C615.883 527.85 614.264 535.273 612.224 542.589C605.812 565.586 592.927 593.73 571.381 605.873C569.384 606.831 567.459 607.595 565.256 607.934C560.266 608.702 555.487 607.697 551.435 604.631C544.266 599.206 541.182 590.134 540.062 581.544C537.762 563.906 542.389 542.549 553.379 528.346C560.935 518.58 571.217 512.2 583.505 510.683Z"/>
	<path fill="black" d="M844.471 377.949C847.105 372.812 849.905 367.753 852.51 362.605C854.128 359.406 855.211 355.616 857.414 352.79C859.573 350.02 862.405 348.202 865.758 347.197C866.558 346.957 867.379 346.79 868.199 346.636C868.175 347.535 868.311 347.13 867.876 347.786C866.858 349.322 865.898 350.692 866.287 352.625C866.572 354.039 867.86 354.92 869.041 355.577C875.467 359.154 884.125 361.945 886.304 369.918C887.31 373.599 885.995 377.238 884.104 380.394C881.157 385.315 877.029 389.5 873.311 393.835C888.286 400.018 902.233 428.33 908.354 443.03C914.371 457.479 918.706 472.344 921.932 487.652C919.845 488.952 917.78 490.021 915.55 491.042Q918.486 508.878 921.049 526.771C922.026 533.894 922.189 543.82 924.558 550.357C926.639 556.097 931.08 561.528 933.972 566.988C938.027 574.646 941.122 582.964 944.33 591.006C946.603 587.009 948.791 583.009 950.854 578.898C958.398 582.412 964.726 587.208 971.779 591.476C969.006 608.412 968.358 625.759 965.402 642.621Q914.381 643.132 863.36 642.687C850.342 642.56 837.177 642.908 824.18 642.382C832.528 637.196 841.673 632.694 851.146 630.005C855.473 623.199 861.184 617.338 865.448 610.531C869.927 613.048 874.258 615.917 878.805 618.293L883.768 613.55C874.445 591.71 867.058 569.083 857.735 547.242C853.583 537.514 848.841 527.919 844.199 518.414C842.084 514.085 839.437 509.607 837.762 505.116C836.418 500.401 833.201 494.411 830.339 490.451C822.294 471.775 811.062 452.045 801.797 433.688C801.021 432.15 800.386 431.679 798.909 430.858C796.629 429.59 795.406 428.606 794.707 426.003C794.52 425.307 794.577 424.798 794.754 424.112C795.229 423.583 796.469 422.561 796.432 421.861C796.254 418.499 776.959 382.519 773.861 377.417C772.828 377.031 771.901 376.826 770.81 376.664C769.348 375.513 767.81 374.201 767.603 372.215C767.417 370.436 767.762 369.364 768.961 368.053C769.296 367.687 769.652 367.342 770.003 366.991C767.374 362.956 763.042 357.379 762.999 352.444L763.892 352.059C768.023 355.115 770.357 361.792 772.538 366.327C794.34 380.855 823.258 392.736 849.357 395.756C854.372 396.337 860.61 396.942 865.586 395.878C866.721 395.635 866.338 395.895 866.929 395.057C865.722 394.716 864.48 395.605 862.846 395.255C856.807 393.959 849.356 388.438 846.218 383.151C845.261 381.539 844.854 379.764 844.471 377.949Z"/>
	<path fill="black" d="M856.802 362.774C860.173 366.777 866.36 367.25 868.071 370.501C871.083 376.222 865.021 378.521 863.716 383.306C864.439 384.732 864.837 383.34 866.21 384.101C866.656 386.215 866.316 388.986 865.479 390.974C865.06 391.97 864.797 391.84 863.867 392.26C862.031 391.786 860.277 391.243 858.617 390.3C855.054 388.275 849.329 384.382 848.305 380.228C847.025 375.034 854.143 366.905 856.802 362.774Z"/>
	<path fill="#FEFEFE" d="M954.526 588.803C959.593 590.323 964.191 592.952 969.366 594.39C962.618 594.917 957.56 594.2 952.167 599.311C950.376 601.008 948.878 603.067 946.956 604.62C941.567 608.974 926.915 608.161 920.096 607.481C915.783 612.388 912.134 617.799 907.82 622.684C898.055 623.053 892.57 625.516 883.634 628.997C878.719 628.428 873.877 625.945 869.09 625.718C865.445 626.881 862.512 632.651 859.808 635.407L859.361 635.854C855.916 637.802 852.871 637.233 849.126 636.806C852.303 634.497 865.215 622.999 867.092 622.502C870.06 621.717 873.753 624.519 876.185 625.969C884.675 626.468 893.032 623.645 900.988 621.035C901.351 620.507 901.725 619.997 902.099 619.478C903.747 617.193 906.244 617.138 908.162 615.249C911.963 611.506 914.822 606.343 917.759 601.906C923.451 603.911 930.58 606.318 936.643 605.03C944.995 603.254 950.305 595.528 954.526 588.803Z"/>
	<path fill="#FEFEFE" d="M778.007 377.351C782.265 379.51 786.429 384.591 790.405 387.518C804.16 397.641 832.271 416.058 849.405 413.529L843.656 416.49C830.958 422.389 814.773 424.249 800.953 422.444Q794.37 408.762 787.316 395.318C784.202 389.412 780.544 383.512 778.007 377.351Z"/>
	<path fill="#FEFEFE" d="M893.745 498.878C897.957 505.293 901.255 527.566 902.64 535.803C903.422 540.456 903.892 545.77 905.758 550.138C907.924 555.21 912.899 560.231 916.307 564.587L937.528 591.443Q933.141 595.166 928.708 598.835L915.671 592.383C914.636 594.016 913.519 595.604 912.436 597.207C909.727 601.003 907.128 605.213 903.861 608.546C901.923 608.888 897.766 609.172 896.308 610.377C895.812 610.787 895.568 611.012 894.974 611.297C892.532 606.537 891.181 600.603 889.575 595.48C885.078 581.136 881.354 566.534 876.604 552.275C882.785 534.732 888.481 516.717 893.745 498.878Z"/>
	<path fill="#FEFEFE" d="M859.571 423.983C862.202 425.146 859.562 480.852 863.041 493.398C863.496 495.04 864.517 496.276 865.579 497.571C863.017 510.184 859.819 523.02 856.106 535.348L840.183 501.669C840.677 498.838 839.813 496.103 838.755 493.48C838.655 493.231 838.546 492.985 838.445 492.736C837.018 489.186 833.274 487.977 831.407 484.795C827.435 478.029 824.145 470.588 820.585 463.581C814.77 452.139 808.756 440.753 803.208 429.18C822.876 432.424 840.972 431.972 859.571 423.983Z"/>
</svg>
